#!OML:ASF X:\für Bonn\!DataBase\2005_08_12_Daniel\c3d\Daniel.ASF
:FULLY-SPECIFIED
:DEGREES
47
root 14.2545 15.4777 15.0687 886.198 -47.2692 -900.587
lowerback 39.5747 4.17863 1.10662
upperback 10.5241 2.63932 -4.265
thorax -7.27736 0.315825 -6.02715
lowerneck -7.97267 -1.14607 -4.44627
upperneck -0.933788 -1.22697 -0.632873
head 1.0683 -0.666085 0.508847
rclavicle -2.98177e-014 4.37326e-014
rhumerus -33.0375 6.85853 -93.3408
rradius 67.878
rwrist 5.67923
rhand -29.2775 15.387
rfingers 7.12502
rthumb -2.61974 -14.5766
lclavicle -2.98177e-014 4.37326e-014
lhumerus -34.0191 28.0395 73.6043
lradius 59.6477
lwrist -11.7937
lhand -21.4584 -2.28253
lfingers 7.12502
lthumb 4.93172 27.6401
rfemur 16.3172 -3.91706 21.1568
rtibia 51.7772
rfoot -30.4236 4.58045
rtoes -9.11289
lfemur -35.9199 -2.14119 -20.1022
ltibia 45.3595
lfoot -9.32139 -4.60329
ltoes -9.98511
48
root 14.1293 15.4611 14.9596 886.749 -47.4083 -901.015
lowerback 39.5991 4.41295 0.520956
upperback 10.4272 2.70542 -4.30653
thorax -7.40921 0.344333 -5.79459
lowerneck -8.09558 -1.19088 -4.42648
upperneck -0.863102 -1.28069 -0.596678
head 1.11346 -0.693715 0.51472
rclavicle 4.49253e-014 -1.90833e-014
rhumerus -33.2106 6.87571 -93.3723
rradius 67.9582
rwrist 5.56627
rhand -29.3477 14.9018
rfingers 7.12502
rthumb -2.6875 -15.061
lclavicle 4.49253e-014 -1.90833e-014
lhumerus -34.0373 28.1126 73.4937
lradius 59.7229
lwrist -11.5092
lhand -22.0032 -1.76535
lfingers 7.12502
lthumb 4.40567 28.1688
rfemur 16.8055 -3.91239 20.8494
rtibia 51.5247
rfoot -30.1964 4.30019
rtoes -9.55454
lfemur -36.3841 -1.57579 -20.6062
ltibia 46.408
lfoot -8.69198 -5.08168
ltoes -9.6732
49
root 14.0054 15.4485 14.8506 887.241 -47.5396 -901.329
lowerback 39.6298 4.62393 0.042278
upperback 10.3226 2.78192 -4.36957
thorax -7.5455 0.380433 -5.64649
lowerneck -8.2158 -1.2495 -4.35168
upperneck -0.815045 -1.35884 -0.549237
head 1.15105 -0.732916 0.513874
rclavicle -7.95139e-016 8.74653e-015
rhumerus -33.3212 6.76361 -93.4758
rradius 67.8432
rwrist 5.47275
rhand -29.386 14.6672
rfingers 7.12502
rthumb -2.72446 -15.2952
lclavicle -7.95139e-016 8.74653e-015
lhumerus -33.993 28.0999 73.3676
lradius 59.8208
lwrist -11.189
lhand -22.5803 -1.31792
lfingers 7.12502
lthumb 3.84843 28.6271
rfemur 17.2475 -3.89068 20.6617
rtibia 51.2304
rfoot -29.8752 3.98163
rtoes -9.86626
lfemur -36.8675 -1.12174 -20.9996
ltibia 47.4541
lfoot -8.13679 -5.46597
ltoes -9.35888
50
root 13.8818 15.4403 14.7423 887.648 -47.6618 -901.574
lowerback 39.6981 4.84662 -0.413609
upperback 10.2481 2.87673 -4.39131
thorax -7.65874 0.422427 -5.47355
lowerneck -8.46334 -1.31584 -4.18229
upperneck -0.715089 -1.44869 -0.617776
head 1.22531 -0.782169 0.459605
rclavicle -3.37934e-014 4.6118e-014
rhumerus -33.3353 6.57246 -93.5157
rradius 67.6453
rwrist 5.51262
rhand -29.4404 14.4224
rfingers 7.12502
rthumb -2.77706 -15.5393
lclavicle -3.37934e-014 4.6118e-014
lhumerus -33.8852 28.1636 73.3476
lradius 59.8705
lwrist -11.0767
lhand -23.0309 -0.94787
lfingers 7.12502
lthumb 3.41324 29.0046
rfemur 17.7223 -3.84343 20.5511
rtibia 50.8845
rfoot -29.3996 3.61846
rtoes -10.03
lfemur -37.2963 -0.638014 -21.3494
ltibia 48.4968
lfoot -7.70908 -5.89134
ltoes -9.6525
51
root 13.7592 15.4351 14.6341 888.078 -47.7657 -901.802
lowerback 39.8143 5.0591 -0.902525
upperback 10.0857 2.95589 -4.40417
thorax -7.88834 0.460694 -5.2732
lowerneck -8.55274 -1.36667 -4.13135
upperneck -0.659918 -1.51572 -0.602661
head 1.25954 -0.816345 0.452866
rclavicle -1.145e-013 8.66701e-014
rhumerus -33.4423 6.36833 -93.5779
rradius 67.351
rwrist 5.54418
rhand -29.4468 14.3369
rfingers 7.12502
rthumb -2.78319 -15.6246
lclavicle -1.145e-013 8.66701e-014
lhumerus -34.0551 28.0804 73.2554
lradius 60.1554
lwrist -10.719
lhand -23.3575 -0.551634
lfingers 7.12502
lthumb 3.09783 29.4056
rfemur 18.1577 -3.74077 20.5125
rtibia 50.5094
rfoot -28.9602 3.18971
rtoes -10.5107
lfemur -37.7435 -0.150946 -21.6756
ltibia 49.5492
lfoot -7.38622 -6.25061
ltoes -10.0849
52
root 13.6331 15.4342 14.5228 888.501 -47.856 -902.005
lowerback 39.8032 5.27652 -1.34685
upperback 10.0071 3.05409 -4.43003
thorax -7.98067 0.507993 -5.11175
lowerneck -8.68121 -1.45112 -4.10725
upperneck -0.601659 -1.62446 -0.532879
head 1.30339 -0.870444 0.465998
rclavicle -1.59028e-015 -5.56597e-014
rhumerus -33.4817 6.1979 -93.6455
rradius 67.003
rwrist 5.59251
rhand -29.5575 14.4443
rfingers 7.12502
rthumb -2.89014 -15.5158
lclavicle -1.59028e-015 -5.56597e-014
lhumerus -34.0686 28.0858 73.2103
lradius 60.3435
lwrist -10.6741
lhand -23.7189 -0.478358
lfingers 7.12502
lthumb 2.74879 29.4837
rfemur 18.5966 -3.65812 20.4814
rtibia 50.0925
rfoot -28.3499 2.75211
rtoes -10.6367
lfemur -38.1638 0.29224 -21.9665
ltibia 50.5977
lfoot -7.25407 -6.59382
ltoes -10.6937
53
root 13.5045 15.4339 14.4114 888.93 -47.9689 -902.21
lowerback 39.8077 5.44004 -1.742
upperback 9.8956 3.11118 -4.45168
thorax -8.11615 0.539055 -4.95739
lowerneck -8.66301 -1.53387 -4.3457
upperneck -0.590899 -1.71509 -0.320309
head 1.31123 -0.910933 0.57
rclavicle -4.6118e-014 1.82882e-014
rhumerus -33.5109 6.14727 -93.6778
rradius 66.5866
rwrist 5.6802
rhand -29.7284 14.4126
rfingers 7.12502
rthumb -3.05519 -15.5453
lclavicle -4.6118e-014 1.82882e-014
lhumerus -34.1638 28.0276 73.2144
lradius 60.5634
lwrist -10.5396
lhand -24.0547 -0.380932
lfingers 7.12502
lthumb 2.42456 29.585
rfemur 19.0344 -3.58062 20.4529
rtibia 49.6528
rfoot -27.6347 2.28885
rtoes -10.7908
lfemur -38.5755 0.687127 -22.2674
ltibia 51.6449
lfoot -7.18434 -6.90711
ltoes -11.3164
54
root 13.3732 15.4388 14.2981 889.315 -48.0872 -902.33
lowerback 39.7368 5.56995 -2.06203
upperback 9.82232 3.15857 -4.48202
thorax -8.18268 0.566665 -4.84399
lowerneck -8.61899 -1.61166 -4.55506
upperneck -0.647323 -1.80562 -0.112943
head 1.293 -0.95092 0.667832
rclavicle 6.20208e-014 -3.10104e-014
rhumerus -33.5241 6.1111 -93.7557
rradius 66.1558
rwrist 5.68168
rhand -29.9784 14.563
rfingers 7.12502
rthumb -3.29662 -15.3913
lclavicle 6.20208e-014 -3.10104e-014
lhumerus -34.2178 28.0185 73.1849
lradius 60.8183
lwrist -10.5329
lhand -24.2418 -0.450749
lfingers 7.12502
lthumb 2.24381 29.5172
rfemur 19.4683 -3.50216 20.524
rtibia 49.1733
rfoot -26.8944 1.73685
rtoes -11.3096
lfemur -38.9636 1.03338 -22.4995
ltibia 52.6828
lfoot -7.24607 -7.23597
ltoes -11.8365
55
root 13.2411 15.4445 14.1844 889.768 -48.2597 -902.518
lowerback 39.5881 5.66082 -2.37853
upperback 9.79192 3.15624 -4.55395
thorax -8.17809 0.571362 -4.75315
lowerneck -8.48824 -1.692 -4.76107
upperneck -0.767604 -1.90618 0.126418
head 1.24033 -0.994221 0.775481
rclavicle -5.80451e-014 3.4191e-014
rhumerus -33.4764 6.10956 -93.831
rradius 65.7152
rwrist 5.61826
rhand -30.1843 14.7891
rfingers 7.12502
rthumb -3.49543 -15.162
lclavicle -5.80451e-014 3.4191e-014
lhumerus -34.1807 27.9832 73.143
lradius 61.0201
lwrist -10.4772
lhand -24.4734 -0.651295
lfingers 7.12502
lthumb 2.02014 29.3189
rfemur 19.8661 -3.48897 20.5034
rtibia 48.7013
rfoot -26.0296 1.26903
rtoes -11.4451
lfemur -39.3347 1.30997 -22.7876
ltibia 53.6917
lfoot -7.38911 -7.53851
ltoes -12.074
